<?xml version="1.0" encoding="iso-8859-1"?>
<!-- Generator: Adobe Illustrator 19.0.0, SVG Export Plug-In . SVG Version: 6.00 Build 0)  -->
<svg version="1.1" id="Layer_1" xmlns="http://www.w3.org/2000/svg" xmlns:xlink="http://www.w3.org/1999/xlink" x="0px" y="0px"
	 viewBox="0 0 512 512" style="enable-background:new 0 0 512 512;" xml:space="preserve">
<path style="fill:#E5D85A;" d="M365.13,206.806c1.676-1.926,2.5-4.37,2.324-6.88c-0.176-2.509-1.333-4.805-3.25-6.472
	l-14.343-12.472c-1.722-1.5-3.898-2.306-6.176-2.306c-0.222,0-0.454,0-0.676,0.018c-2.537,0.176-4.843,1.324-6.5,3.241
	c-1.685,1.926-2.509,4.37-2.333,6.88c0.176,2.509,1.324,4.805,3.25,6.472l14.343,12.472
	C355.694,211.195,361.704,210.741,365.13,206.806z"/>
<circle style="fill:#65D3AF;" cx="265.481" cy="241.778" r="9.481"/>
<path style="fill:#F28544;" d="M75.852,222.815c0-10.454-8.509-18.963-18.963-18.963s-18.963,8.509-18.963,18.963
	s8.509,18.963,18.963,18.963S75.852,233.269,75.852,222.815z"/>
<path style="fill:#E65F58;" d="M124.232,289.75c0.741,2.407,2.389,4.398,4.639,5.593c4.695,2.491,10.324,0.778,12.815-3.907
	l17.824-33.518c2.444-4.611,0.685-10.361-3.935-12.815c-4.704-2.482-10.324-0.759-12.815,3.917l-17.824,33.518
	C123.741,284.787,123.491,287.343,124.232,289.75z"/>
<g>
	<rect y="118.519" style="fill:#314E55;" width="512" height="18.963"/>
	<polygon style="fill:#314E55;" points="474.074,336.593 436.148,336.593 417.185,336.593 379.259,336.593 360.296,336.593 
		322.37,336.593 303.407,336.593 265.481,336.593 246.519,336.593 208.593,336.593 189.63,336.593 151.704,336.593 132.741,336.593 
		94.815,336.593 75.852,336.593 37.926,336.593 18.963,336.593 0,336.593 0,355.556 18.963,355.556 18.963,393.481 37.926,393.481 
		37.926,355.556 75.852,355.556 75.852,393.481 94.815,393.481 94.815,355.556 132.741,355.556 132.741,393.481 151.704,393.481 
		151.704,355.556 189.63,355.556 189.63,393.481 208.593,393.481 208.593,355.556 246.519,355.556 246.519,393.481 265.481,393.481 
		265.481,355.556 303.407,355.556 303.407,393.481 322.37,393.481 322.37,355.556 360.296,355.556 360.296,393.481 379.259,393.481 
		379.259,355.556 417.185,355.556 417.185,393.481 436.148,393.481 436.148,355.556 474.074,355.556 474.074,393.481 
		493.037,393.481 493.037,355.556 512,355.556 512,336.593 493.037,336.593 	"/>
	<path style="fill:#314E55;" d="M94.815,222.815c0-20.917-17.009-37.926-37.926-37.926s-37.926,17.009-37.926,37.926
		s17.009,37.926,37.926,37.926S94.815,243.731,94.815,222.815z M37.926,222.815c0-10.454,8.509-18.963,18.963-18.963
		s18.963,8.509,18.963,18.963s-8.509,18.963-18.963,18.963S37.926,233.269,37.926,222.815z"/>
	<path style="fill:#314E55;" d="M265.481,213.333c-15.685,0-28.444,12.759-28.444,28.444c0,15.685,12.759,28.444,28.444,28.444
		c15.685,0,28.444-12.759,28.444-28.444C293.926,226.093,281.167,213.333,265.481,213.333z M265.481,251.259
		c-5.231,0-9.481-4.25-9.481-9.481c0-5.231,4.25-9.481,9.481-9.481s9.481,4.25,9.481,9.481
		C274.963,247.009,270.713,251.259,265.481,251.259z"/>
	<path style="fill:#314E55;" d="M445.63,298.667c0,10.454,8.509,18.963,18.963,18.963c10.454,0,18.963-8.509,18.963-18.963
		c0-10.454-8.509-18.963-18.963-18.963C454.139,279.704,445.63,288.213,445.63,298.667z"/>
	<path style="fill:#314E55;" d="M108.194,273.63c-3.583,6.731-4.324,14.435-2.093,21.704c2.231,7.232,7.157,13.185,13.87,16.75
		c4.241,2.259,8.796,3.324,13.296,3.324c10.185,0,20.046-5.472,25.157-15.065l17.824-33.528
		c7.361-13.842,2.074-31.093-11.778-38.454c-13.824-7.361-31.093-2.074-38.454,11.75L108.194,273.63z M142.759,249.019
		c2.491-4.676,8.111-6.398,12.815-3.917c4.62,2.454,6.38,8.204,3.935,12.815l-17.824,33.518c-2.491,4.685-8.12,6.398-12.815,3.907
		c-2.25-1.194-3.898-3.185-4.639-5.593c-0.741-2.407-0.491-4.963,0.704-7.213L142.759,249.019z"/>
	<path style="fill:#314E55;" d="M357.944,229.028c7.954,0,15.87-3.315,21.5-9.778c5-5.759,7.463-13.092,6.926-20.667
		c-0.537-7.556-3.991-14.463-9.722-19.444l-14.343-12.472c-5.732-4.972-13.019-7.417-20.63-6.889
		c-7.583,0.537-14.5,3.982-19.472,9.713c-5.009,5.741-7.472,13.074-6.944,20.639c0.528,7.565,3.982,14.482,9.722,19.472
		l14.343,12.472C344.695,226.741,351.333,229.028,357.944,229.028z M334.176,188.815c-0.176-2.509,0.648-4.954,2.333-6.88
		c1.657-1.917,3.963-3.065,6.5-3.241c0.222-0.018,0.454-0.018,0.676-0.018c2.278,0,4.454,0.805,6.176,2.306l14.343,12.472
		c1.917,1.667,3.074,3.963,3.25,6.472c0.176,2.509-0.648,4.954-2.324,6.88c-3.426,3.935-9.435,4.389-13.361,0.954l-14.343-12.472
		C335.5,193.62,334.352,191.324,334.176,188.815z"/>
	<path style="fill:#314E55;" d="M138.324,175.37c11.639-1.009,46.019-0.065,51.796,17.259c1.324,3.972,5.018,6.482,8.991,6.482
		c0.991,0,2-0.157,3-0.491c4.963-1.648,7.648-7.018,5.991-11.991c-11.722-35.176-69.037-30.361-71.481-30.148
		c-5.204,0.472-9.046,5.083-8.574,10.287C128.5,171.991,133.185,175.917,138.324,175.37z"/>
	<path style="fill:#314E55;" d="M460.139,200.556c-4.454-2.787-10.296-1.426-13.065,3.009l-23.704,37.926
		c-2.778,4.444-1.426,10.296,3.009,13.065c1.565,0.982,3.306,1.445,5.019,1.445c3.157,0,6.25-1.574,8.046-4.454l23.704-37.926
		C465.926,209.176,464.574,203.324,460.139,200.556z"/>
	<path style="fill:#314E55;" d="M284.593,295.574c0.805,4.602,4.805,7.833,9.324,7.833c0.546,0,1.102-0.046,1.657-0.148
		l80.593-14.222c5.157-0.907,8.602-5.824,7.685-10.981c-0.907-5.157-5.824-8.648-10.981-7.685l-80.593,14.222
		C287.12,285.5,283.676,290.417,284.593,295.574z"/>
</g>
<g>
</g>
<g>
</g>
<g>
</g>
<g>
</g>
<g>
</g>
<g>
</g>
<g>
</g>
<g>
</g>
<g>
</g>
<g>
</g>
<g>
</g>
<g>
</g>
<g>
</g>
<g>
</g>
<g>
</g>
</svg>
