<?xml version="1.0" encoding="iso-8859-1"?>
<!-- Generator: Adobe Illustrator 19.0.0, SVG Export Plug-In . SVG Version: 6.00 Build 0)  -->
<svg version="1.1" id="Layer_1" xmlns="http://www.w3.org/2000/svg" xmlns:xlink="http://www.w3.org/1999/xlink" x="0px" y="0px"
	 viewBox="0 0 512 512" style="enable-background:new 0 0 512 512;" xml:space="preserve">
<path style="fill:#5ECC66;" d="M199.99,153.073c8.406,2.254,17.202,1.118,24.745-3.244L337.51,84.708
	c7.524-4.344,12.922-11.368,15.176-19.774c2.263-8.415,1.118-17.202-3.235-24.727c-6.025-10.432-16.993-16.267-28.262-16.267
	c-5.525,0-11.123,1.4-16.248,4.362L192.166,93.414c-7.524,4.344-12.922,11.368-15.176,19.783
	c-2.263,8.415-1.118,17.193,3.235,24.718C184.56,145.44,191.584,150.82,199.99,153.073z"/>
<g>
	<path style="fill:#F28544;" d="M193.975,384.021c-4.035-1.145-8.188-0.682-11.777,1.318l-70.5,39.085
		c-7.47,4.135-10.16,13.613-5.998,21.119c4.162,7.488,13.613,10.232,21.092,6.088l70.491-39.076
		c7.47-4.144,10.16-13.613,5.998-21.11C201.272,387.81,197.964,385.175,193.975,384.021z"/>
	<path style="fill:#F28544;" d="M285.04,289.212c-0.927-4.044-3.362-7.47-6.861-9.651l-68.365-42.72
		c-2.481-1.554-5.289-2.345-8.151-2.345c-1.172,0-2.363,0.127-3.535,0.4c-4.044,0.945-7.479,3.399-9.678,6.925
		c-4.553,7.279-2.363,16.884,4.88,21.419l68.356,42.711c7.243,4.516,16.821,2.29,21.383-4.998
		C285.267,297.436,285.966,293.265,285.04,289.212z"/>
	<path style="fill:#F28544;" d="M452.503,299.399c-10.578,0-19.611,8.088-20.547,18.775l-8.133,92.964
		c-0.991,11.305,7.433,21.301,18.775,22.3c11.396,1.063,21.365-7.397,22.355-18.702l8.133-92.955
		c0.991-11.305-7.433-21.301-18.766-22.3C453.711,299.426,453.102,299.399,452.503,299.399z"/>
</g>
<g>
	<path style="fill:#314E55;" d="M32.827,221.292l32.688-18.875l34.823,27.18c1.672,1.309,3.698,1.972,5.725,1.972
		c1.79,0,3.59-0.518,5.152-1.554c3.335-2.226,4.88-6.334,3.826-10.196L96.112,150.32l30.325,23.4
		c2.999,2.29,7.07,2.572,10.341,0.691l33.103-19.113c6.615,7.602,15.328,13.085,25.293,15.751c4.416,1.19,8.906,1.772,13.359,1.772
		c8.869,0,17.62-2.317,25.508-6.87l112.775-65.121c11.832-6.825,20.301-17.857,23.845-31.07c3.553-13.222,1.745-27.026-5.089-38.858
		c-14.113-24.436-45.51-32.824-69.937-18.72L182.86,77.293c-11.832,6.834-20.301,17.866-23.845,31.07
		c-2.782,10.354-2.167,21.025,1.464,30.869l-27.609,15.941L85.543,118.65c-3.172-2.445-7.552-2.599-10.869-0.363
		c-3.317,2.226-4.853,6.325-3.799,10.178l18.856,69.246l-17.711-13.822c-2.981-2.345-7.097-2.626-10.378-0.727l-38.122,22.01
		c-4.453,2.572-5.979,8.26-3.408,12.713C22.686,222.347,28.383,223.846,32.827,221.292z M176.99,113.198
		c2.254-8.415,7.652-15.439,15.176-19.783l112.775-65.111c5.125-2.962,10.723-4.362,16.248-4.362
		c11.268,0,22.237,5.834,28.262,16.267c4.353,7.524,5.498,16.312,3.235,24.727c-2.254,8.406-7.652,15.43-15.176,19.774
		l-112.775,65.121c-7.543,4.362-16.339,5.498-24.745,3.244c-8.406-2.254-15.43-7.633-19.765-15.158
		C175.872,130.391,174.727,121.613,176.99,113.198z"/>
	<path style="fill:#314E55;" d="M505.837,234.16l-40.803-14.658l7.742-2.372c3.626-1.109,6.216-4.308,6.543-8.088l2.744-31.37
		c0.445-5.116-3.335-9.633-8.46-10.078c-5.044-0.5-9.624,3.344-10.078,8.46l-2.199,25.118l-28.498,8.724
		c-3.826,1.172-6.479,4.671-6.579,8.669c-0.091,4.008,2.39,7.633,6.161,8.987l41.057,14.749l-18.62,5.825
		c-3.608,1.118-6.17,4.308-6.498,8.07l-2.215,25.278c-17.155,2.891-31.131,16.936-32.717,35.081l-8.133,92.964
		c-1.89,21.519,14.122,40.566,35.695,42.456c1.154,0.1,2.308,0.155,3.453,0.155c20.11,0,37.277-15.403,39.058-35.777l8.133-92.955
		c1.614-18.468-9.986-35.036-26.927-40.58l1.646-18.788l39.121-12.232c3.817-1.19,6.452-4.689,6.534-8.679
		C512.08,239.122,509.599,235.514,505.837,234.16z M473.086,321.781l-8.133,92.955c-0.991,11.305-10.959,19.765-22.355,18.702
		c-11.341-1-19.765-10.996-18.775-22.3l8.133-92.964c0.936-10.687,9.969-18.775,20.547-18.775c0.6,0,1.209,0.027,1.817,0.082
		C465.652,300.48,474.076,310.477,473.086,321.781z"/>
	<path style="fill:#314E55;" d="M375.041,355.023l-17.439-10.905l3.935-23.509c0.654-3.926-1.263-7.842-4.762-9.733
		c-3.517-1.881-7.833-1.327-10.75,1.381l-23.637,21.955l1.954-12.123c0.6-3.698-1.081-7.388-4.253-9.369l-17.439-10.898
		c1.514-5.42,1.819-11.125,0.528-16.764c-2.036-8.906-7.415-16.466-15.14-21.283l-68.355-42.711
		c-7.724-4.834-16.875-6.388-25.772-4.289c-8.869,2.063-16.421,7.452-21.246,15.185c-9.987,15.976-5.152,37.077,10.796,47.055
		l68.365,42.72c5.589,3.49,11.823,5.152,17.984,5.152c8.506,0,16.876-3.181,23.271-9.103l11.907,7.44l-5.28,32.742
		c-0.636,3.926,1.299,7.815,4.798,9.687c3.499,1.863,7.815,1.309,10.723-1.39l23.445-21.774l-0.454,2.69
		c-0.618,3.708,1.054,7.433,4.244,9.424l22.709,14.195c1.536,0.963,3.244,1.418,4.925,1.418c3.099,0,6.134-1.545,7.897-4.371
		C380.721,363.483,379.394,357.74,375.041,355.023z M261.685,305.951l-68.356-42.711c-7.243-4.535-9.433-14.14-4.88-21.419
		c2.199-3.526,5.634-5.979,9.678-6.925c1.172-0.273,2.363-0.4,3.535-0.4c2.863,0,5.671,0.79,8.151,2.345l68.365,42.72
		c3.499,2.181,5.934,5.607,6.861,9.651c0.927,4.053,0.227,8.224-1.972,11.741C278.506,308.241,268.927,310.467,261.685,305.951z"/>
	<path style="fill:#314E55;" d="M199.136,366.137c-8.769-2.499-17.993-1.49-25.963,2.926l-70.491,39.076
		c-13.724,7.598-19.987,23.341-16.435,37.929l-12.399,6.872l-26.09-20.483c-3.126-2.472-7.461-2.663-10.796-0.5
		c-3.335,2.154-4.934,6.189-3.98,10.051l7.679,31.052l-2.127-1.69c-2.953-2.354-7.015-2.699-10.305-0.863L4.802,483.483
		c-4.498,2.49-6.125,8.151-3.635,12.65c2.49,4.507,8.16,6.116,12.65,3.635l17.993-9.969l18.647,14.84
		c1.69,1.345,3.744,2.026,5.798,2.026c1.745,0,3.49-0.491,5.025-1.472c3.353-2.154,4.962-6.198,4.008-10.069L57.545,463.8
		l9.669,7.588c2.935,2.317,6.979,2.644,10.25,0.827l17.865-9.901c6.454,6.359,15.14,9.855,24.028,9.855
		c5.58,0,11.241-1.372,16.448-4.253l70.5-39.085c16.439-9.115,22.391-29.943,13.259-46.409
		C215.148,374.452,207.887,368.672,199.136,366.137z M197.282,412.556l-70.491,39.076c-7.479,4.144-16.93,1.4-21.092-6.088
		c-4.162-7.506-1.472-16.984,5.998-21.119l70.5-39.085c3.59-1.999,7.742-2.463,11.777-1.318c3.989,1.154,7.297,3.789,9.306,7.424
		C207.442,398.943,204.752,408.412,197.282,412.556z"/>
</g>
<g>
</g>
<g>
</g>
<g>
</g>
<g>
</g>
<g>
</g>
<g>
</g>
<g>
</g>
<g>
</g>
<g>
</g>
<g>
</g>
<g>
</g>
<g>
</g>
<g>
</g>
<g>
</g>
<g>
</g>
</svg>
