<?xml version="1.0" encoding="iso-8859-1"?>
<!-- Generator: Adobe Illustrator 19.0.0, SVG Export Plug-In . SVG Version: 6.00 Build 0)  -->
<svg version="1.1" id="Layer_1" xmlns="http://www.w3.org/2000/svg" xmlns:xlink="http://www.w3.org/1999/xlink" x="0px" y="0px"
	 viewBox="0 0 512.001 512.001" style="enable-background:new 0 0 512.001 512.001;" xml:space="preserve">
<path style="fill:#859300;" d="M125.663,386.129L125.663,386.129c-58.933-58.933-58.933-154.481,0-213.412l99.084-99.084
	c58.932-58.932,154.48-58.932,213.412,0l0,0c58.932,58.932,58.932,154.48,0,213.412l-99.084,99.084
	C280.143,445.06,184.596,445.06,125.663,386.129z"/>
<path style="fill:#FFA800;" d="M163.773,348.02L163.773,348.02c-37.885-37.885-37.885-99.309,0-137.193l99.084-99.084
	c37.885-37.885,99.309-37.885,137.193,0l0,0c37.885,37.885,37.885,99.309,0,137.193l-99.084,99.084
	C263.081,385.904,201.658,385.904,163.773,348.02z"/>
<path style="fill:#FF5200;" d="M232.369,279.422L232.369,279.422c-21.047-21.047-21.047-55.171,0-76.219l53.354-53.354
	c21.047-21.047,55.171-21.047,76.219,0l0,0c21.047,21.047,21.047,55.171,0,76.219l-53.354,53.354
	C287.541,300.469,253.417,300.469,232.369,279.422z"/>
<path style="fill:#630000;" d="M339.075,203.203c-8.418,8.418-22.069,8.418-30.487,0c-8.418-8.418-8.418-22.069,0-30.487
	c8.418-8.418,22.069-8.418,30.487,0C347.494,181.134,347.495,194.785,339.075,203.203z"/>
<path d="M17.068,494.932c3.157,3.158,3.157,8.276,0,11.433l-3.266,3.266C12.223,511.211,10.153,512,8.085,512
	s-4.138-0.789-5.717-2.367c-3.157-3.158-3.157-8.276,0-11.433l3.266-3.266C8.792,491.776,13.911,491.776,17.068,494.932z
	 M434.471,180.338c0,28.073-10.932,54.464-30.781,74.313l-99.084,99.085c-20.489,20.488-47.401,30.732-74.313,30.732
	s-53.826-10.244-74.313-30.732c-40.976-40.978-40.976-107.652,0-148.628l99.084-99.085c40.98-40.975,107.652-40.973,148.628,0
	C423.539,125.874,434.471,152.266,434.471,180.338z M418.303,180.338c0-23.752-9.249-46.084-26.046-62.879
	c-16.795-16.797-39.126-26.046-62.88-26.046c-23.753-0.001-46.084,9.249-62.881,26.045l-99.083,99.085
	c-34.673,34.672-34.673,91.087,0,125.759c34.671,34.673,91.086,34.674,125.761,0.001l99.083-99.085
	C409.052,226.423,418.303,204.091,418.303,180.338z M365.58,144.134c24.165,24.166,24.165,63.486,0,87.652l-53.353,53.354
	c0,0,0,0-0.001,0c-12.082,12.082-27.954,18.123-43.825,18.123s-31.743-6.041-43.825-18.123
	c-24.166-24.166-24.166-63.486-0.001-87.652l53.354-53.354C302.096,119.969,341.414,119.969,365.58,144.134z M354.146,155.567
	c-8.928-8.929-20.662-13.396-32.392-13.396c-11.733,0-23.461,4.465-32.394,13.396l-53.353,53.354
	c-8.652,8.651-13.418,20.156-13.418,32.393c0,12.236,4.765,23.74,13.417,32.392c17.863,17.863,46.924,17.864,64.787,0.001h-0.001
	l53.353-53.354C372.008,202.491,372.008,173.429,354.146,155.567z M342.715,167c5.598,5.599,8.681,13.044,8.681,20.961
	c0,7.917-3.083,15.361-8.681,20.96c-5.779,5.778-13.369,8.667-20.96,8.667c-7.592,0-15.182-2.89-20.961-8.667
	c-11.557-11.558-11.557-30.363,0-41.921c5.599-5.597,13.044-8.681,20.96-8.681C329.672,158.319,337.116,161.401,342.715,167z
	 M331.281,178.433c-2.627-2.628-6.077-3.94-9.526-3.94c-3.45,0-6.901,1.313-9.527,3.94c-5.254,5.253-5.254,13.801,0,19.054
	c5.253,5.254,13.801,5.256,19.054,0C336.535,192.235,336.535,183.686,331.281,178.433z M509.633,238.646
	c-1.578,1.578-3.648,2.367-5.716,2.367c-2.07,0-4.138-0.789-5.717-2.368l-15.605-15.606c-1.607,5.803-3.552,11.494-5.807,17.059
	l22.174,22.173c3.157,3.158,3.157,8.276,0,11.433c-1.579,1.578-3.649,2.367-5.717,2.367s-4.138-0.789-5.717-2.367l-18.055-18.055
	c-2.626,4.87-5.52,9.607-8.663,14.202l21.382,21.382c3.157,3.158,3.157,8.276,0,11.433c-1.579,1.578-3.649,2.367-5.717,2.367
	s-4.138-0.789-5.717-2.367l-19.839-19.839c-2.889,3.415-5.924,6.731-9.123,9.931l-24.771,24.771l17.149,17.149
	c3.157,3.157,3.157,8.276-0.001,11.432c-1.578,1.578-3.648,2.367-5.716,2.367c-2.07,0-4.138-0.789-5.717-2.368l-17.148-17.148
	l-11.432,11.432l17.149,17.148c3.157,3.158,3.157,8.276,0,11.433c-1.579,1.578-3.649,2.367-5.717,2.367
	c-2.068,0-4.138-0.789-5.717-2.367l-17.149-17.148l-11.432,11.431l17.149,17.148c3.158,3.157,3.158,8.276,0.001,11.432
	c-1.579,1.579-3.649,2.368-5.717,2.368c-2.068,0-4.138-0.789-5.716-2.367l-17.15-17.149l-17.149,17.149
	c-3.199,3.199-6.516,6.235-9.931,9.123l19.839,19.839c3.157,3.158,3.157,8.276,0,11.433c-1.579,1.578-3.649,2.367-5.717,2.367
	s-4.138-0.789-5.717-2.367l-21.382-21.382c-4.595,3.143-9.332,6.036-14.201,8.662l18.055,18.055c3.157,3.158,3.157,8.276,0,11.433
	c-1.579,1.578-3.649,2.367-5.717,2.367s-4.138-0.789-5.717-2.367l-22.174-22.174c-5.564,2.256-11.255,4.199-17.058,5.808
	l15.606,15.605c3.158,3.157,3.158,8.276,0.001,11.432c-1.579,1.579-3.649,2.368-5.717,2.368s-4.138-0.789-5.716-2.367
	l-22.866-22.865c-0.056-0.056-0.102-0.115-0.156-0.172c-7.827,1.171-15.793,1.77-23.854,1.77c-27.911,0-54.724-7.145-78.351-20.567
	l-42.206,42.205c-1.574,1.584-3.644,2.373-5.712,2.373c-2.068,0-4.138-0.789-5.717-2.367c-3.157-3.158-3.157-8.276,0-11.433
	l39.699-39.699c-4.941-3.537-9.709-7.368-14.271-11.498l-73.343,73.344c-1.579,1.578-3.649,2.367-5.717,2.367
	c-2.068,0-4.138-0.789-5.717-2.367c-3.157-3.158-3.157-8.276,0-11.433l73.344-73.345c-4.05-4.473-7.81-9.145-11.291-13.985
	L58.65,414.355c-1.579,1.578-3.649,2.367-5.717,2.367c-2.068,0-4.138-0.789-5.717-2.367c-3.157-3.158-3.157-8.276,0-11.433
	l44.835-44.836c-13.537-23.704-20.749-50.629-20.749-78.664c0-8.055,0.598-16.018,1.767-23.839L52.32,234.834
	c-3.157-3.157-3.157-8.276,0.001-11.432c3.156-3.156,8.275-3.157,11.432,0.001L77.07,236.72c1.607-5.802,3.552-11.494,5.807-17.058
	L62.99,199.776c-3.157-3.158-3.157-8.276,0-11.433c3.158-3.156,8.276-3.156,11.433,0L90.19,204.11
	c2.626-4.87,5.52-9.606,8.663-14.201l-19.096-19.096c-3.157-3.158-3.157-8.276,0-11.433c3.158-3.156,8.276-3.156,11.433,0
	l17.552,17.551c2.889-3.414,5.924-6.73,9.122-9.93l17.15-17.149l-17.149-17.148c-3.158-3.157-3.158-8.276-0.001-11.432
	c3.158-3.158,8.277-3.157,11.432-0.001l17.15,17.149l11.432-11.432l-17.148-17.148c-3.157-3.158-3.157-8.276,0-11.433
	c3.158-3.156,8.276-3.156,11.433,0l17.148,17.148l11.432-11.431l-17.149-17.15c-3.157-3.157-3.157-8.276,0.001-11.432
	c3.157-3.157,8.276-3.156,11.432,0.001l17.148,17.149l24.771-24.771c3.199-3.199,6.516-6.235,9.931-9.123L209.331,41.24
	c-3.157-3.158-3.157-8.276,0-11.433c3.158-3.156,8.276-3.156,11.433,0l19.096,19.096c4.594-3.143,9.332-6.037,14.201-8.662
	l-15.769-15.769c-3.157-3.158-3.157-8.276,0-11.433c3.158-3.156,8.276-3.156,11.433,0l19.888,19.888
	c5.564-2.256,11.255-4.199,17.058-5.808l-13.318-13.317c-3.158-3.157-3.158-8.276-0.001-11.432
	c3.158-3.158,8.277-3.157,11.432-0.001l20.749,20.749c7.821-1.17,15.784-1.768,23.839-1.768c42.468,0,82.393,16.538,112.423,46.566
	c30.028,30.029,46.566,69.954,46.566,112.423c0,8.059-0.598,16.026-1.769,23.853c0.056,0.054,0.117,0.1,0.172,0.156l22.865,22.866
	C512.791,230.371,512.791,235.489,509.633,238.646z M472.197,180.339c0-38.15-14.856-74.015-41.832-100.989
	c-26.974-26.975-62.84-41.832-100.989-41.832S255.363,52.373,228.388,79.35l-99.085,99.084c-55.686,55.685-55.686,146.293,0,201.978
	h0.001c26.974,26.975,62.84,41.832,100.988,41.832s74.015-14.856,100.989-41.832l99.084-99.084
	C457.341,254.353,472.197,218.487,472.197,180.339z"/>
<g>
</g>
<g>
</g>
<g>
</g>
<g>
</g>
<g>
</g>
<g>
</g>
<g>
</g>
<g>
</g>
<g>
</g>
<g>
</g>
<g>
</g>
<g>
</g>
<g>
</g>
<g>
</g>
<g>
</g>
</svg>
